<svg xmlns="http://www.w3.org/2000/svg" width="14.157" height="14.157" viewBox="0 0 14.157 14.157"><g transform="translate(5.214 14.381) rotate(-135)" opacity="0.5"><path d="M.6-.219c.408,0,.74.166.74.37S1.01.52.6.52s-.74-.166-.74-.37S.193-.219.6-.219Z" transform="translate(3.303 5.827)" fill="#fff"/><path d="M7.056,5.929,3.925,0V4.533A1.559,1.559,0,0,1,4.72,5.977,1.4,1.4,0,0,1,3.528,7.508,1.4,1.4,0,0,1,2.336,5.977a1.559,1.559,0,0,1,.795-1.444V0L0,5.929,1.317,9.584H5.739Z" transform="translate(0.317 0)" fill="#fff"/><path d="M6.072,0H1.619A1.868,1.868,0,0,0,0,2.042H7.691A1.868,1.868,0,0,0,6.072,0Z" transform="translate(0 10.605)" fill="#fff"/></g></svg>