<svg xmlns="http://www.w3.org/2000/svg" width="9.936" height="12.266" viewBox="0 0 9.936 12.266"><g opacity="0.5"><path d="M22.556,6.825a.692.692,0,0,0-.692.692l-.013,3.1a.208.208,0,0,1-.207.216.2.2,0,0,1-.207-.216V6.144a.678.678,0,0,0-.689-.679.65.65,0,0,0-.654.679v4.476a.239.239,0,0,1-.229.219c-.2,0-.219-.219-.219-.219V5.4a.671.671,0,1,0-1.343,0v5.223a.221.221,0,0,1-.23.209.208.208,0,0,1-.217-.209V6.741a.626.626,0,0,0-.681-.622.61.61,0,0,0-.662.622v5.67s-.037.252-.4-.164a5.063,5.063,0,0,0-1.41-1.278s-.88-.431-1.269.347c-.282.564.017.595.478,1.287.408.613,1.7,2.227,1.7,2.227s1.532,2.161,3.6,2.161c0,0,4.049.173,4.049-3.833l-.014-5.64a.692.692,0,0,0-.692-.692" transform="translate(-13.326 -4.726)" fill="#fff"/></g></svg>